<svg xmlns="http://www.w3.org/2000/svg" fill="none" version="1.0" viewBox="0 0 161 80">
    <path d="M10.7 10.8c-1 1-1.7 2.5-1.7 3.3 0 .8 6.9 8.4 15.4 16.8 11.5 11.4 15.9 15.2 17.5 14.9 1.1-.2 8.8-6.7 17.1-14.6C71.7 19 74 16.4 74 13.9c0-2.2-.7-3.2-2.4-4.1-2.2-.9-3-.6-7.3 3-2.6 2.2-8.6 7.9-13.3 12.6-4.6 4.7-8.9 8.6-9.4 8.6-.6 0-6.7-5.6-13.6-12.5C21 14.6 14.6 9 13.8 9c-.8 0-2.2.8-3.1 1.8zM138.2 12.6c-3.3 2.3-2.4 5.2 2.8 9 5.2 3.8 9.4 4.3 11 1.4 1.5-2.8-.2-5.5-5.8-9.1-5.4-3.4-5.1-3.4-8-1.3zM113.8 15.3C97 28.1 99.2 52.8 118.1 62.5c2.8 1.5 3.3 1.5 5.5 0 3.6-2.3 2.7-5.3-2.5-9-11.9-8.3-11.9-23.7 0-32 4.7-3.4 5.8-5.7 3.9-8-2.1-2.5-6.5-1.7-11.2 1.8z"/>
    <path d="M128.6 35.6c-4 4-.2 7.4 8.2 7.4h6.2v4.7c-.1 4.3-.4 5-3.3 6.8-4.1 2.6-4.6 5.8-1.3 8 2.5 1.6 2.8 1.6 7-.9 6.8-4 7.6-5.7 7.6-15.8 0-11.5-.3-11.8-13-11.8-7.6 0-10.2.4-11.4 1.6zM10.2 38.2C9.4 39 9 43.3 9 51c0 10.1.3 11.9 1.8 13.3 2.4 2.2 3.8 2.1 6.2-.3 1.7-1.7 2-3.3 2-12.3 0-7.7-.4-10.8-1.6-12.5-1.7-2.4-5.3-2.9-7.2-1zM66.2 38.2C65.4 39 65 43.3 65 51c0 10.4.2 11.9 2 13.5 1.7 1.5 2.4 1.6 4.5.7C74 64.1 74 63.9 74 51.7c0-12.9-.5-14.7-4.5-14.7-1.2 0-2.6.5-3.3 1.2z"/>
    <style>
        path { fill: #000; }
        @media (prefers-color-scheme: dark) {
            path { fill: #FFF; }
        }
    </style>
</svg>